<?xml version="1.0" encoding="UTF-8" standalone="no"?>
<!DOCTYPE svg PUBLIC "-//W3C//DTD SVG 1.1//EN" "http://www.w3.org/Graphics/SVG/1.1/DTD/svg11.dtd">
<svg width="100%" height="100%" viewBox="0 0 500 500" version="1.1" xmlns="http://www.w3.org/2000/svg" xmlns:xlink="http://www.w3.org/1999/xlink" xml:space="preserve" xmlns:serif="http://www.serif.com/" style="fill-rule:evenodd;clip-rule:evenodd;stroke-linecap:round;stroke-linejoin:round;stroke-miterlimit:1.5;">
    <g transform="matrix(1,0,0,0.338505,-34.0251,219.188)">
        <clipPath id="_clip1">
            <rect x="33.147" y="179.736" width="572.802" height="184.243"/>
        </clipPath>
        <g clip-path="url(#_clip1)">
            <ellipse cx="272.818" cy="154.434" rx="299.106" ry="177.343" style="fill:none;stroke:white;stroke-width:14.88px;"/>
        </g>
    </g>
    <path d="M228.377,177.255C227.841,178.589 226.795,179.833 226.353,181.06C225.945,182.193 225.927,183.469 225.725,184.616C225.529,185.725 225.254,186.823 225.139,187.943C224.958,189.725 224.554,192.987 224.634,195.308C224.71,197.518 225.132,201.408 225.619,201.869C226.106,202.33 226.993,198.546 227.554,198.075C227.995,197.705 228.786,198.502 228.983,199.042C229.361,200.074 229.541,202.535 229.822,204.267C230.101,205.991 230.384,207.916 230.669,209.437C230.917,210.763 231.186,212.087 231.53,213.392C232.153,215.757 233.747,220.593 234.405,223.626C234.974,226.245 235.113,229.201 235.48,231.594C235.808,233.732 236.334,236.234 236.608,237.984C236.822,239.348 236.98,240.94 237.124,242.094C237.242,243.034 237.36,243.973 237.477,244.912C237.655,246.349 237.722,248.822 238.192,250.713C238.722,252.848 239.5,255.531 240.658,257.72C242.723,261.624 247.218,268.699 250.582,274.138C255.263,281.709 264.932,296.34 268.749,303.15C270.828,306.86 274.919,311.925 273.484,314.997C272.049,318.069 264.783,319.84 260.139,321.582C255.134,323.46 243.44,325.781 243.456,326.263C243.472,326.745 254.61,324.505 260.234,324.476C266.34,324.443 279.054,326.469 280.094,326.069C281.134,325.67 266.883,323.418 266.475,322.076C266.068,320.734 274.587,318.56 277.648,318.017C280.024,317.597 282.655,317.802 284.841,318.823C287.643,320.132 291.26,323.587 294.46,325.873C297.627,328.135 300.527,330.873 304.043,332.542C307.788,334.319 313.436,335.391 316.932,336.541C319.654,337.435 322.482,338.115 325.023,339.437C329.602,341.82 338.617,346.851 344.405,350.838C349.842,354.584 355.18,358.732 359.749,363.363C364.305,367.979 368.2,374.79 371.821,378.621C374.653,381.617 378.911,384.423 381.476,386.349C383.312,387.728 385.754,388.395 387.206,390.174C395.831,400.747 425.021,439.645 433.223,449.782C433.94,450.668 436.065,451.491 436.421,450.995C436.777,450.499 436.172,447.997 435.361,446.807C424.063,430.215 381.176,370.767 368.633,351.442C364.591,345.214 360.704,334.091 360.108,330.863C359.799,329.194 363.682,331.682 365.052,332.074C366.163,332.393 368.841,334.253 368.325,333.219C365.852,328.267 353.923,308.843 350.218,302.364C348.725,299.755 347.217,297.133 346.091,294.345C344.785,291.108 344.104,286.549 342.378,282.943C339.42,276.763 332.241,264.695 328.343,257.262C325.077,251.034 321.655,242.803 318.991,238.35C317.239,235.419 314.389,233.289 312.361,230.541C309.937,227.257 307.211,222.339 304.447,218.64C301.762,215.047 298.295,211.064 295.776,208.35C293.781,206.201 290.904,204.088 289.333,202.359C288.145,201.052 287.114,199.571 286.351,197.977C285.395,195.98 284.241,192.591 283.597,190.376C283.057,188.522 283.184,186.491 282.485,184.69C281.594,182.398 279.681,178.778 278.251,176.62C277.049,174.806 275.445,173.284 273.905,171.746C272.306,170.147 270.377,168.281 268.654,167.032C267.09,165.897 265.36,164.973 263.568,164.249C261.629,163.464 259.159,162.762 257.019,162.325C254.953,161.904 252.84,161.594 250.732,161.63C248.291,161.672 244.636,162.074 242.374,162.575C240.551,162.979 238.712,163.724 237.163,164.636C235.635,165.535 234.267,166.836 233.079,168.044C231.933,169.209 230.778,170.43 230.035,171.885C229.251,173.42 228.99,175.726 228.377,177.255Z" style="fill:white;stroke:white;stroke-width:2.78px;"/>
</svg>
